<mxfile host="app.diagrams.net" agent="Mozilla/5.0 (Macintosh; Intel Mac OS X 10_15_7) AppleWebKit/537.36 (KHTML, like Gecko) Chrome/137.0.0.0 Safari/537.36" version="27.1.5">
  <diagram name="Page-1" id="SFR0JTBXc3MFR0fgT3Va">
    <mxGraphModel dx="909" dy="531" grid="1" gridSize="10" guides="1" tooltips="1" connect="1" arrows="1" fold="1" page="1" pageScale="1" pageWidth="827" pageHeight="1169" math="0" shadow="0">
      <root>
        <mxCell id="0" />
        <mxCell id="1" parent="0" />
        <mxCell id="yBM4Wye_2Ngb5hZxT9Bm-29" style="edgeStyle=orthogonalEdgeStyle;rounded=0;orthogonalLoop=1;jettySize=auto;html=1;exitX=1;exitY=0.5;exitDx=0;exitDy=0;entryX=0.5;entryY=0;entryDx=0;entryDy=0;" edge="1" parent="1" source="yBM4Wye_2Ngb5hZxT9Bm-1" target="yBM4Wye_2Ngb5hZxT9Bm-7">
          <mxGeometry relative="1" as="geometry" />
        </mxCell>
        <mxCell id="yBM4Wye_2Ngb5hZxT9Bm-30" style="edgeStyle=orthogonalEdgeStyle;rounded=0;orthogonalLoop=1;jettySize=auto;html=1;exitX=1;exitY=0.25;exitDx=0;exitDy=0;" edge="1" parent="1" source="yBM4Wye_2Ngb5hZxT9Bm-1" target="yBM4Wye_2Ngb5hZxT9Bm-25">
          <mxGeometry relative="1" as="geometry" />
        </mxCell>
        <mxCell id="yBM4Wye_2Ngb5hZxT9Bm-50" style="edgeStyle=orthogonalEdgeStyle;rounded=0;orthogonalLoop=1;jettySize=auto;html=1;exitX=0.25;exitY=1;exitDx=0;exitDy=0;entryX=0.5;entryY=0;entryDx=0;entryDy=0;" edge="1" parent="1" source="yBM4Wye_2Ngb5hZxT9Bm-1" target="yBM4Wye_2Ngb5hZxT9Bm-4">
          <mxGeometry relative="1" as="geometry" />
        </mxCell>
        <mxCell id="yBM4Wye_2Ngb5hZxT9Bm-1" value="API GATEWAY" style="rounded=1;whiteSpace=wrap;html=1;" vertex="1" parent="1">
          <mxGeometry x="340" y="100" width="120" height="60" as="geometry" />
        </mxCell>
        <mxCell id="yBM4Wye_2Ngb5hZxT9Bm-43" style="edgeStyle=orthogonalEdgeStyle;rounded=0;orthogonalLoop=1;jettySize=auto;html=1;exitX=0.75;exitY=1;exitDx=0;exitDy=0;entryX=0;entryY=0.75;entryDx=0;entryDy=0;" edge="1" parent="1" source="yBM4Wye_2Ngb5hZxT9Bm-2" target="yBM4Wye_2Ngb5hZxT9Bm-11">
          <mxGeometry relative="1" as="geometry" />
        </mxCell>
        <mxCell id="yBM4Wye_2Ngb5hZxT9Bm-46" style="edgeStyle=orthogonalEdgeStyle;rounded=0;orthogonalLoop=1;jettySize=auto;html=1;exitX=0.25;exitY=1;exitDx=0;exitDy=0;" edge="1" parent="1" source="yBM4Wye_2Ngb5hZxT9Bm-2" target="yBM4Wye_2Ngb5hZxT9Bm-22">
          <mxGeometry relative="1" as="geometry" />
        </mxCell>
        <mxCell id="yBM4Wye_2Ngb5hZxT9Bm-2" value="Order Service" style="rounded=1;whiteSpace=wrap;html=1;" vertex="1" parent="1">
          <mxGeometry x="170" y="180" width="120" height="60" as="geometry" />
        </mxCell>
        <mxCell id="yBM4Wye_2Ngb5hZxT9Bm-44" style="edgeStyle=orthogonalEdgeStyle;rounded=0;orthogonalLoop=1;jettySize=auto;html=1;exitX=0.25;exitY=1;exitDx=0;exitDy=0;" edge="1" parent="1" source="yBM4Wye_2Ngb5hZxT9Bm-3" target="yBM4Wye_2Ngb5hZxT9Bm-8">
          <mxGeometry relative="1" as="geometry" />
        </mxCell>
        <mxCell id="yBM4Wye_2Ngb5hZxT9Bm-45" style="edgeStyle=orthogonalEdgeStyle;rounded=0;orthogonalLoop=1;jettySize=auto;html=1;exitX=0.75;exitY=1;exitDx=0;exitDy=0;entryX=0;entryY=0.5;entryDx=0;entryDy=0;" edge="1" parent="1" source="yBM4Wye_2Ngb5hZxT9Bm-3" target="yBM4Wye_2Ngb5hZxT9Bm-11">
          <mxGeometry relative="1" as="geometry" />
        </mxCell>
        <mxCell id="yBM4Wye_2Ngb5hZxT9Bm-3" value="User Service" style="rounded=1;whiteSpace=wrap;html=1;" vertex="1" parent="1">
          <mxGeometry x="30" y="180" width="120" height="60" as="geometry" />
        </mxCell>
        <mxCell id="yBM4Wye_2Ngb5hZxT9Bm-4" value="Wallet Service" style="rounded=1;whiteSpace=wrap;html=1;" vertex="1" parent="1">
          <mxGeometry x="310" y="180" width="120" height="60" as="geometry" />
        </mxCell>
        <mxCell id="yBM4Wye_2Ngb5hZxT9Bm-7" value="Notification Service" style="rounded=1;whiteSpace=wrap;html=1;" vertex="1" parent="1">
          <mxGeometry x="460" y="180" width="120" height="60" as="geometry" />
        </mxCell>
        <mxCell id="yBM4Wye_2Ngb5hZxT9Bm-8" value="DB" style="shape=cylinder3;whiteSpace=wrap;html=1;boundedLbl=1;backgroundOutline=1;size=15;" vertex="1" parent="1">
          <mxGeometry x="30" y="280" width="60" height="80" as="geometry" />
        </mxCell>
        <mxCell id="yBM4Wye_2Ngb5hZxT9Bm-9" value="DB" style="shape=cylinder3;whiteSpace=wrap;html=1;boundedLbl=1;backgroundOutline=1;size=15;" vertex="1" parent="1">
          <mxGeometry x="474" y="280" width="60" height="80" as="geometry" />
        </mxCell>
        <mxCell id="yBM4Wye_2Ngb5hZxT9Bm-10" value="DB" style="shape=cylinder3;whiteSpace=wrap;html=1;boundedLbl=1;backgroundOutline=1;size=15;" vertex="1" parent="1">
          <mxGeometry x="320" y="280" width="60" height="80" as="geometry" />
        </mxCell>
        <mxCell id="yBM4Wye_2Ngb5hZxT9Bm-42" style="edgeStyle=orthogonalEdgeStyle;rounded=0;orthogonalLoop=1;jettySize=auto;html=1;exitX=0.5;exitY=0;exitDx=0;exitDy=0;entryX=0.75;entryY=1;entryDx=0;entryDy=0;" edge="1" parent="1" source="yBM4Wye_2Ngb5hZxT9Bm-11" target="yBM4Wye_2Ngb5hZxT9Bm-4">
          <mxGeometry relative="1" as="geometry" />
        </mxCell>
        <mxCell id="yBM4Wye_2Ngb5hZxT9Bm-11" value="Message queue (RabbitMQ)" style="rounded=0;whiteSpace=wrap;html=1;" vertex="1" parent="1">
          <mxGeometry x="340" y="410" width="120" height="60" as="geometry" />
        </mxCell>
        <mxCell id="yBM4Wye_2Ngb5hZxT9Bm-22" value="DB" style="shape=cylinder3;whiteSpace=wrap;html=1;boundedLbl=1;backgroundOutline=1;size=15;" vertex="1" parent="1">
          <mxGeometry x="180" y="280" width="60" height="80" as="geometry" />
        </mxCell>
        <mxCell id="yBM4Wye_2Ngb5hZxT9Bm-39" style="edgeStyle=orthogonalEdgeStyle;rounded=0;orthogonalLoop=1;jettySize=auto;html=1;exitX=0.5;exitY=1;exitDx=0;exitDy=0;" edge="1" parent="1" source="yBM4Wye_2Ngb5hZxT9Bm-25" target="yBM4Wye_2Ngb5hZxT9Bm-26">
          <mxGeometry relative="1" as="geometry" />
        </mxCell>
        <mxCell id="yBM4Wye_2Ngb5hZxT9Bm-52" style="edgeStyle=orthogonalEdgeStyle;rounded=0;orthogonalLoop=1;jettySize=auto;html=1;exitX=1;exitY=0.5;exitDx=0;exitDy=0;" edge="1" parent="1" source="yBM4Wye_2Ngb5hZxT9Bm-25" target="yBM4Wye_2Ngb5hZxT9Bm-51">
          <mxGeometry relative="1" as="geometry" />
        </mxCell>
        <mxCell id="yBM4Wye_2Ngb5hZxT9Bm-58" style="edgeStyle=orthogonalEdgeStyle;rounded=0;orthogonalLoop=1;jettySize=auto;html=1;exitX=0;exitY=1;exitDx=0;exitDy=0;entryX=1;entryY=0.75;entryDx=0;entryDy=0;" edge="1" parent="1" source="yBM4Wye_2Ngb5hZxT9Bm-25" target="yBM4Wye_2Ngb5hZxT9Bm-11">
          <mxGeometry relative="1" as="geometry" />
        </mxCell>
        <mxCell id="yBM4Wye_2Ngb5hZxT9Bm-25" value="Dispute Service" style="rounded=1;whiteSpace=wrap;html=1;" vertex="1" parent="1">
          <mxGeometry x="610" y="180" width="120" height="60" as="geometry" />
        </mxCell>
        <mxCell id="yBM4Wye_2Ngb5hZxT9Bm-26" value="DB" style="shape=cylinder3;whiteSpace=wrap;html=1;boundedLbl=1;backgroundOutline=1;size=15;" vertex="1" parent="1">
          <mxGeometry x="630" y="280" width="60" height="80" as="geometry" />
        </mxCell>
        <mxCell id="yBM4Wye_2Ngb5hZxT9Bm-27" style="edgeStyle=orthogonalEdgeStyle;rounded=0;orthogonalLoop=1;jettySize=auto;html=1;exitX=0;exitY=0.25;exitDx=0;exitDy=0;entryX=0.317;entryY=0.05;entryDx=0;entryDy=0;entryPerimeter=0;" edge="1" parent="1" source="yBM4Wye_2Ngb5hZxT9Bm-1" target="yBM4Wye_2Ngb5hZxT9Bm-3">
          <mxGeometry relative="1" as="geometry" />
        </mxCell>
        <mxCell id="yBM4Wye_2Ngb5hZxT9Bm-28" style="edgeStyle=orthogonalEdgeStyle;rounded=0;orthogonalLoop=1;jettySize=auto;html=1;exitX=0;exitY=0.5;exitDx=0;exitDy=0;entryX=0.4;entryY=-0.033;entryDx=0;entryDy=0;entryPerimeter=0;" edge="1" parent="1" source="yBM4Wye_2Ngb5hZxT9Bm-1" target="yBM4Wye_2Ngb5hZxT9Bm-2">
          <mxGeometry relative="1" as="geometry" />
        </mxCell>
        <mxCell id="yBM4Wye_2Ngb5hZxT9Bm-34" value="Clients" style="shape=actor;whiteSpace=wrap;html=1;" vertex="1" parent="1">
          <mxGeometry x="374" y="10" width="40" height="60" as="geometry" />
        </mxCell>
        <mxCell id="yBM4Wye_2Ngb5hZxT9Bm-35" value="" style="points=[];aspect=fixed;html=1;align=center;shadow=0;dashed=0;fillColor=#FF6A00;strokeColor=none;shape=mxgraph.alibaba_cloud.mq_message_queue;" vertex="1" parent="1">
          <mxGeometry x="374" y="480" width="45" height="49.8" as="geometry" />
        </mxCell>
        <mxCell id="yBM4Wye_2Ngb5hZxT9Bm-37" style="edgeStyle=orthogonalEdgeStyle;rounded=0;orthogonalLoop=1;jettySize=auto;html=1;exitX=0.5;exitY=1;exitDx=0;exitDy=0;entryX=0.75;entryY=0;entryDx=0;entryDy=0;entryPerimeter=0;" edge="1" parent="1" source="yBM4Wye_2Ngb5hZxT9Bm-7" target="yBM4Wye_2Ngb5hZxT9Bm-9">
          <mxGeometry relative="1" as="geometry" />
        </mxCell>
        <mxCell id="yBM4Wye_2Ngb5hZxT9Bm-38" style="edgeStyle=orthogonalEdgeStyle;rounded=0;orthogonalLoop=1;jettySize=auto;html=1;exitX=0.75;exitY=0;exitDx=0;exitDy=0;entryX=0.058;entryY=0.95;entryDx=0;entryDy=0;entryPerimeter=0;" edge="1" parent="1" source="yBM4Wye_2Ngb5hZxT9Bm-11" target="yBM4Wye_2Ngb5hZxT9Bm-7">
          <mxGeometry relative="1" as="geometry" />
        </mxCell>
        <mxCell id="yBM4Wye_2Ngb5hZxT9Bm-40" style="edgeStyle=orthogonalEdgeStyle;rounded=0;orthogonalLoop=1;jettySize=auto;html=1;exitX=0.25;exitY=1;exitDx=0;exitDy=0;entryX=0.333;entryY=0.125;entryDx=0;entryDy=0;entryPerimeter=0;" edge="1" parent="1" source="yBM4Wye_2Ngb5hZxT9Bm-4" target="yBM4Wye_2Ngb5hZxT9Bm-10">
          <mxGeometry relative="1" as="geometry" />
        </mxCell>
        <mxCell id="yBM4Wye_2Ngb5hZxT9Bm-48" style="edgeStyle=orthogonalEdgeStyle;rounded=0;orthogonalLoop=1;jettySize=auto;html=1;exitX=0.5;exitY=1;exitDx=0;exitDy=0;entryX=0.45;entryY=0;entryDx=0;entryDy=0;entryPerimeter=0;" edge="1" parent="1" source="yBM4Wye_2Ngb5hZxT9Bm-34" target="yBM4Wye_2Ngb5hZxT9Bm-1">
          <mxGeometry relative="1" as="geometry" />
        </mxCell>
        <mxCell id="yBM4Wye_2Ngb5hZxT9Bm-51" value="Bucket with&#xa;objects" style="sketch=0;outlineConnect=0;fontColor=#232F3E;gradientColor=none;strokeColor=#232F3E;fillColor=#ffffff;dashed=0;verticalLabelPosition=bottom;verticalAlign=top;align=center;html=1;fontSize=12;fontStyle=0;aspect=fixed;shape=mxgraph.aws4.resourceIcon;resIcon=mxgraph.aws4.bucket_with_objects;" vertex="1" parent="1">
          <mxGeometry x="730" y="280" width="60" height="60" as="geometry" />
        </mxCell>
        <mxCell id="yBM4Wye_2Ngb5hZxT9Bm-57" value="S3" style="text;html=1;align=center;verticalAlign=middle;whiteSpace=wrap;rounded=0;" vertex="1" parent="1">
          <mxGeometry x="750" y="230" width="60" height="30" as="geometry" />
        </mxCell>
      </root>
    </mxGraphModel>
  </diagram>
</mxfile>
